HIERARCHY
ROOT pelvis
{
  OFFSET 0 0 0
  CHANNELS 6 Xposition Yposition Zposition Zrotation Xrotation Yrotation
  JOINT pelvis_right_femur
  {
    OFFSET -11.43119 -3.542788 0.2090856
    CHANNELS 3 Zrotation Xrotation Yrotation
    JOINT right_femur_tibia
    {
      OFFSET -1.028693 -40.73281 5
      CHANNELS 3 Zrotation Xrotation Yrotation
      JOINT right_tibia_foot
      {
        OFFSET -0.5013517 -42.05707 -5
        CHANNELS 3 Zrotation Xrotation Yrotation
        End Site
        {
          OFFSET 0 -5 10
        }
      }
    }
  }
  JOINT pelvis_left_femur
  {
    OFFSET 11.43119 -3.542788 0.2090856
    CHANNELS 3 Zrotation Xrotation Yrotation
    JOINT left_femur_tibia
    {
      OFFSET 1.028693 -40.73281 5
      CHANNELS 3 Zrotation Xrotation Yrotation
      JOINT left_tibia_foot
      {
        OFFSET 0.3200228 -42.98253 -5
        CHANNELS 3 Zrotation Xrotation Yrotation
        End Site
        {
          OFFSET 0 -5 10
        }
      }
    }
  }
  JOINT pelvis_spine1
  {
    OFFSET 0 8.64413 -3.209807
    CHANNELS 3 Zrotation Xrotation Yrotation
    JOINT spine1
    {
      OFFSET 0 29.53957 -1.762685
      CHANNELS 3 Zrotation Xrotation Yrotation
      JOINT spine2
      {
        OFFSET 0 16.36153 -0.1422377
        CHANNELS 3 Zrotation Xrotation Yrotation
        JOINT neck
        {
          OFFSET 0 11.60093 5
          CHANNELS 3 Zrotation Xrotation Yrotation
          End Site
          {
            OFFSET 0 20 0
          }
        }
      }
      JOINT right_manubrium
      {
        OFFSET -4.671311 15.89868 4
        CHANNELS 3 Zrotation Xrotation Yrotation
        JOINT right_clavicle
        {
          OFFSET -13.601 1.573642 -2.74176
          CHANNELS 3 Zrotation Xrotation Yrotation
          JOINT right_humerus
          {
            OFFSET -0.06331682 -27.72702 2.252146
            CHANNELS 3 Zrotation Xrotation Yrotation
            JOINT right_radius
            {
              OFFSET -0.5696302 -23.92083 0.4042105
              CHANNELS 3 Zrotation Xrotation Yrotation
              End Site
              {
                OFFSET 0 -15 0
              }
            }
          }
        }
      }
      JOINT left_manubrium
      {
        OFFSET 4.671311 15.89868 4
        CHANNELS 3 Zrotation Xrotation Yrotation
        JOINT left_clavicle
        {
          OFFSET 13.601 1.573642 -2.74176
          CHANNELS 3 Zrotation Xrotation Yrotation
          JOINT left_humerus
          {
            OFFSET 0.000209614 -29.01858 1.101395
            CHANNELS 3 Zrotation Xrotation Yrotation
            JOINT left_radius
            {
              OFFSET -0.2288314 -24.59216 1.790347
              CHANNELS 3 Zrotation Xrotation Yrotation
              End Site
              {
                OFFSET 0 -15 0
              }
            }
          }
        }
      }
    }
  }
}
MOTION
Frames: 7
Frame Time: 0.0416666666667
0 48.26591 0 -3.857438 -17.51404 -1.295293 -56.71286 -62.62668 -56.75394 -180 85.53242 -180 5.242774 5.823689 -0.9887286 72.57431 -51.79668 68.02827 -180 79.54692 -180 -5.026966 3.008875 -19.28468 -1.169154 20.50293 0.838808 7.205469 13.65262 -10.51716 -11.52359 8.967818 11.52598 3.357517 -33.28508 7.044436 21.02201 -6.724263 22.49077 -58.45596 -34.38624 11.35779 0 -71.63234 0 20.87805 10.26284 40.79173 -25.52823 -25.53822 -2.010467 55.80665 -26.00721 -26.00824 0 -78.50009 0 -11.22746 5.208808 -18.94222
0.01402254 48.25634 0.01111352 -3.879401 -17.49504 -1.508108 -56.74929 -62.67631 -56.90381 -180 85.56525 -180 5.22644 5.882655 -0.8726708 72.59287 -51.73617 67.95338 -180 79.49008 -180 -5.056791 2.946985 -19.17164 -1.033679 20.43467 0.7582241 6.850734 13.81447 -10.29085 -11.82209 8.695084 13.36814 3.223494 -33.09826 9.688663 21.25821 -6.811772 22.34719 -58.26757 -34.51691 11.4688 0 -71.66378 0 20.88931 10.40829 40.80983 -25.91593 -25.78024 -1.875557 56.15438 -24.2693 -23.66767 0 -79.12855 0 -9.516328 2.569692 -16.63508
0.02490239 48.24787 -0.004778334 -3.851968 -17.48014 -1.768128 -56.82087 -62.75292 -57.0559 -180 85.62065 -180 5.192608 5.930784 -0.7303379 72.51145 -51.6884 67.79651 -180 79.47159 -180 -5.097958 2.870956 -19.02039 -0.8235373 20.43254 0.7533436 6.318779 14.01779 -9.795054 -12.26961 8.365687 15.93102 3.207654 -32.91398 13.25625 21.48705 -6.989592 21.91854 -58.11442 -34.66605 11.55027 0 -71.8493 0 20.89272 10.53592 40.82989 -26.32433 -26.27817 -1.55469 56.58931 -22.14147 -20.61345 0 -79.73415 0 -7.335743 -0.1714383 -13.98452
-0.01235331 48.24264 -0.02692163 -3.715072 -17.46034 -1.941802 -57.08167 -62.79699 -57.36374 -180 85.64589 -180 5.156239 5.961436 -0.5831739 72.30077 -51.70285 67.58482 -180 79.50051 -180 -5.136866 2.814651 -18.86501 -0.6258696 20.46222 0.8648286 5.732423 14.23575 -9.161604 -12.79769 8.054116 18.73261 3.237847 -32.7212 17.09802 21.72825 -7.220653 21.29763 -58.02786 -34.77232 11.53828 0 -72.19349 0 20.87843 10.63224 40.84966 -26.64189 -27.09716 -1.051675 57.10942 -19.77724 -16.99197 0 -79.85685 0 -4.803138 -2.7579 -11.0143
-0.1171719 48.32418 -0.03507386 -3.486867 -17.4101 -1.989225 -57.41998 -62.76987 -57.75234 -180 85.61359 -180 5.125034 5.987016 -0.441638 71.99764 -51.76207 67.30818 -180 79.58152 -180 -5.1537 2.804966 -18.69991 -0.4856552 20.53059 1.126413 5.153552 14.39299 -8.530759 -13.33144 7.833815 21.26789 3.232417 -32.46293 20.52731 21.95869 -7.412112 20.56113 -58.01679 -34.74648 11.45261 0 -72.71469 0 20.8637 10.68157 40.87157 -26.82652 -28.35659 -0.4196036 57.69445 -17.39141 -12.91118 0 -79.03988 0 -2.028076 -4.98655 -7.73542
-0.143843 48.22292 -0.01257693 -3.484973 -17.32854 -1.869975 -57.98907 -62.64897 -58.42521 -180 85.50382 -180 5.133183 5.95857 -0.3322336 72.13806 -52.06043 67.35375 -180 79.52098 -180 -5.169245 2.782821 -18.5891 0.02083757 20.5834 1.277238 4.691488 14.35192 -8.033569 -13.75055 7.781029 23.25217 3.220839 -32.06589 23.19601 22.03046 -7.625395 19.83987 -58.15746 -34.62156 11.28615 0 -73.36144 0 20.86256 10.68729 40.90412 -26.80035 -30.10113 0.2462326 58.31995 -15.15721 -8.524455 0 -77.07572 0 0.8382617 -6.76157 -4.216001
-0.1834544 48.21974 0.02612165 -3.435662 -17.21845 -1.642591 -58.51521 -62.44719 -59.01458 -180 85.41131 -180 5.158717 5.897589 -0.2956252 72.1598 -52.37783 67.34918 -180 79.53501 -180 -5.148238 2.81475 -18.54371 0.420881 20.60994 1.479804 4.379171 14.26787 -7.67239 -13.97846 7.883829 24.57242 3.245401 -31.63525 24.96928 22.09075 -7.741363 19.17569 -58.33613 -34.36655 11.10837 0 -74.02423 0 20.87423 10.66717 40.93144 -26.57554 -32.19978 0.878791 59.02279 -13.1859 -4.092859 0 -74.10286 0 3.581031 -8.060341 -0.5921238
